# xmcd CD database file
# Copyright (C) 1993-1996 Ti Kan
#
# Track frame offsets:
# 150
# 11387
# 20240
# 30685
# 37552
# 49722
# 58357
# 69287
# 81177
# 91827
#
# Disc length: 1371 seconds
# Revision: 0
# Processed by: cddbd v1.4b41PL1 Copyright (c) Steve Scherf et al.
# Submitted via: CDSpectrumPro v3.2.327
#
DISCID=7205590a
DTITLE=Waylon Jennings - The Best Of Waylon Jennings
DYEAR=1900
DGENRE=
TTITLE0=Sally Was A Good Old Girl
TTITLE1=Love's Gonna Live Here
TTITLE2=White Lightnin'
TTITLE3=It's So Easy
TTITLE4=Don't Think Twice It's Alright
TTITLE5=Abilene
TTITLE6=Dream Baby
TTITLE7=Crying
TTITLE8=Burning Memories
TTITLE9=Big Mamou
EXTD=
EXTT0=
EXTT1=
EXTT2=
EXTT3=
EXTT4=
EXTT5=
EXTT6=
EXTT7=
EXTT8=
EXTT9=
PLAYORDER=
